PathFileType	4	(X/Y/Z)	F:\MotionCapture\20160217\3\Generated_files\EMG_test03-Dynamic.trc
DataRate	CameraRate	NumFrames	NumMarkers	Units	OrigDataRate	OrigDataStartFrame	OrigNumFrames
120.00	120.00	       7	39	mm	120.00	647	       739
Frame#	Time	Top.Head			Front.Head			Rear.Head			R.Shoulder			R.Offset			R.Elbow			R.Wrist			L.Shoulder			L.Elbow			L.Wrist			R.ASIS			L.ASIS			V.Sacral			R.Thigh			R.Knee			R.Shank			R.Ankle			R.Heel			R.Toe			L.Thigh			L.Knee			L.Shank			L.Ankle			L.Heel			L.Toe			R1			R2			R3			R4			R5			R6			R7			L1			L2			L3			L4			L5			L6			L7			V_Mid_ASIS			V_Pelvis_Origin			V_R.Hip_JC			V_L.Hip_JC			V_R.Knee_JC			V_L.Knee_JC			V_R.Ankle_JC			V_L.Ankle_JC			V_Mid_Hip			V_Mid_Shoulder			V_R.Hand			V_L.Hand			V_R.Toe_Offset_Static			V_L.Toe_Offset_Static			V_R.Toe_Offset			V_L.Toe_Offset			
		X1	Y1	Z1	X2	Y2	Z2	X3	Y3	Z3	X4	Y4	Z4	X5	Y5	Z5	X6	Y6	Z6	X7	Y7	Z7	X8	Y8	Z8	X9	Y9	Z9	X10	Y10	Z10	X11	Y11	Z11	X12	Y12	Z12	X13	Y13	Z13	X14	Y14	Z14	X15	Y15	Z15	X16	Y16	Z16	X17	Y17	Z17	X18	Y18	Z18	X19	Y19	Z19	X20	Y20	Z20	X21	Y21	Z21	X22	Y22	Z22	X23	Y23	Z23	X24	Y24	Z24	X25	Y25	Z25	X26	Y26	Z26	X27	Y27	Z27	X28	Y28	Z28	X29	Y29	Z29	X30	Y30	Z30	X31	Y31	Z31	X32	Y32	Z32	X33	Y33	Z33	X34	Y34	Z34	X35	Y35	Z35	X36	Y36	Z36	X37	Y37	Z37	X38	Y38	Z38	X39	Y39	Z39	

647	5.383	2204.88403	-50.75968	1715.89087	2308.59326	-55.21363	1622.81213	2089.93726	-38.92618	1656.82935	2126.97437	-241.18028	1418.79761	2001.78467	25.55421	1267.22205	2143.66553	-385.30405	1111.10474	2371.72339	-358.25211	983.26624	2155.38501	165.65350	1407.65601	2069.79517	269.51251	1101.86536	2126.95972	322.37390	854.46637	2188.50684	-198.63702	935.69391	2222.68164	89.66380	937.92889	1984.13904	-20.10325	933.11810	2172.07227	-136.61241	553.52386	2075.52271	-164.07321	457.72906	2025.09363	-76.29092	232.11545	1930.53479	-132.57259	80.47281	1864.82397	-64.98710	58.64156	2071.57178	-130.25180	43.13540	2364.81494	65.59042	673.15015	2334.42310	119.75089	489.74686	2381.35229	44.38864	357.87744	2349.22461	88.23617	80.67384	2298.57666	21.12424	53.12684	2484.19604	99.43710	84.42097	2120.28369	-115.53706	40.93991	2080.86011	-92.45570	48.33107	1987.94763	-47.64316	57.67951	1913.73816	-40.18575	53.10961	1893.54688	-110.85622	56.79595	1962.73230	-144.89043	42.05104	2026.93127	-169.89287	39.69349	2529.13867	84.26248	95.95583	2501.36963	65.31274	90.97744	2420.56104	11.08005	85.50273	2341.88135	-2.03222	64.33018	2318.77759	66.03436	53.29187	2390.68604	106.91168	55.18263	2448.04980	122.11950	69.26586																																																	2282.08008	56.42614	-64.97274	2319.88647	64.85712	53.42060	
648	5.392	2216.19092	-49.84957	1713.32837	2319.27319	-54.67788	1620.35266	2100.71851	-37.99524	1654.42371	2137.78711	-240.49464	1416.58752	2011.89551	26.48092	1265.05945	2156.30371	-385.77750	1109.84167	2386.81812	-358.56415	986.43207	2166.32178	166.65083	1405.58984	2076.87646	270.06409	1100.96106	2129.19897	324.97131	853.48291	2198.45898	-198.68297	934.14777	2233.89966	89.64958	935.37207	1994.18164	-19.85891	931.74994	2179.16260	-137.87750	551.89880	2080.74731	-164.40320	456.53955	2027.97498	-76.64626	231.82382	1930.93677	-132.35410	81.41834	1865.05017	-64.60421	60.36342	2072.61768	-131.63583	44.25134	2374.42896	65.30850	669.17871	2345.27979	117.69812	487.43524	2397.95166	43.46821	358.24869	2379.29370	89.74014	80.33665	2328.45898	23.21314	50.53551	2513.78101	99.74635	89.39745	2118.47681	-114.73878	37.94277	2080.86743	-92.47594	48.24746	1988.60498	-47.35177	58.30828	1914.21802	-39.92952	54.33885	1894.31384	-110.21201	58.12529	1962.73755	-144.77115	42.13855	2026.64331	-169.83084	39.41068	2558.06738	83.89736	102.35667	2530.53101	65.84335	96.66955	2449.64111	12.26301	87.64328	2371.16650	-1.61072	62.71664	2350.07568	67.72807	51.77603	2421.43774	108.05895	56.44002	2477.93237	123.03669	73.06796																																																	2360.47266	27.88687	43.70996	2291.52026	60.22319	-64.80672	2461.41406	-272.17285	-124.85176	3473.63672	-461.99384	1660.05701	1378.82520	-64.04485	1480.30957	
649	5.400	2227.13843	-49.22021	1711.16675	2330.18896	-54.10370	1617.79663	2111.45068	-37.36623	1652.10840	2148.41089	-240.22890	1414.00452	2021.66907	26.77781	1262.90552	2168.28271	-385.92947	1108.30151	2400.93286	-357.75177	988.94531	2176.50708	167.38629	1403.15088	2084.54468	270.73938	1099.71716	2131.08740	326.73639	851.39191	2208.66479	-198.73224	932.69135	2245.12695	89.56493	933.00848	2004.90686	-19.41102	929.44342	2186.23340	-138.77393	550.30908	2085.46313	-164.68448	455.85175	2030.91150	-76.86852	231.09291	1930.40662	-132.77322	82.48535	1865.50024	-64.27380	62.13572	2072.67700	-131.82114	44.29465	2383.94971	64.77380	664.81567	2356.51294	115.50269	485.16422	2414.17578	42.24339	358.34518	2407.18799	90.28185	80.00288	2357.44067	24.71916	47.97365	2541.70337	99.80447	94.38330	2118.58179	-114.90454	37.99096	2080.93970	-92.56638	48.32452	1989.31763	-47.25967	58.57788	1914.32361	-40.88636	54.39056	1893.48669	-110.23279	59.23954	1962.97766	-145.03143	42.45608	2026.62805	-169.72701	39.19368	2585.46753	83.04358	108.76812	2557.97778	65.17317	101.82716	2476.85718	12.45051	89.37218	2399.58667	0.00732	62.15519	2379.69312	68.51262	50.72338	2450.94263	108.69013	58.99276	2506.81958	123.73973	77.43438																																																	2506.86499	123.34245	77.15525	1387.24805	-63.80699	1477.71985	
650	5.408	2237.67310	-48.39601	1708.69019	2341.19556	-53.45871	1615.31311	2122.32690	-36.42630	1650.07520	2158.77637	-239.34109	1411.80286	2034.07678	28.20680	1260.39453	2181.12671	-386.13019	1106.89807	2414.89917	-357.76950	991.04730	2186.73950	168.26930	1401.38135	2093.00562	271.78903	1098.86963	2133.77271	328.27075	849.55200	2219.47974	-198.79820	931.37714	2256.77734	89.54529	930.76611	2017.19836	-18.29528	927.26160	2193.76318	-139.93260	548.39410	2091.44238	-165.40033	454.78180	2033.74451	-76.89159	230.71620	1930.90295	-132.56049	83.86933	1865.87842	-64.13408	63.77340	2071.56982	-130.57031	43.01685	2393.22974	63.98432	660.32263	2367.80981	113.87270	483.78323	2429.61475	41.16909	359.03436	2434.05591	91.40114	80.89191	2384.85352	25.50804	46.50172	2567.34277	98.95655	98.51331	2120.36572	-116.14146	40.62957	2080.91870	-92.63279	48.25546	1988.93652	-47.49979	59.03198	1914.90222	-41.05527	55.85981	1893.88635	-109.90349	60.73643	1963.16528	-145.29321	42.98222	2026.44299	-169.66931	39.05941	2611.12842	82.32935	115.15877	2583.55713	64.57493	107.20100	2502.63770	13.14032	91.95574	2426.24243	0.95311	62.26060	2406.82471	68.86436	50.14561	2478.31323	109.24944	60.94558	2533.49756	123.47392	81.15218	
651	5.417	2248.95679	-47.76376	1706.05701	2352.01563	-52.51514	1612.89587	2133.79297	-35.71168	1647.70508	2169.01636	-238.80243	1409.63672	2043.88452	28.87121	1258.14648	2193.49902	-385.98895	1105.24963	2428.52173	-357.15381	992.85010	2196.74976	168.95226	1398.73511	2100.30273	272.66165	1097.78516	2137.42969	330.14355	848.38733	2230.20752	-198.46365	929.79968	2268.55957	89.29961	928.65125	2028.04932	-17.59495	925.38708	2201.16162	-141.43462	546.40131	2097.66260	-165.46317	454.08868	2038.63721	-79.27594	229.69252	1931.55469	-133.10237	84.66473	1866.59375	-64.09474	66.26363	2071.53223	-130.67169	42.98020	2402.60498	62.72440	655.98895	2379.09082	112.99989	482.55743	2444.43018	40.04100	359.19989	2459.08350	91.40338	81.19339	2410.56836	26.67539	45.86591	2592.59839	98.38075	104.30677	2121.12866	-116.23316	41.36114	2081.06616	-93.35971	49.12755	1989.18884	-47.77286	59.65339	1915.74170	-40.64954	57.72131	1893.65308	-110.03463	62.66191	1963.16187	-145.40762	43.23131	2026.44055	-169.64331	38.99509	2635.45239	81.12115	121.18659	2607.88770	63.59700	111.84953	2527.21655	12.38442	94.41740	2451.74072	2.56773	61.85299	2433.03345	70.01357	50.00640	2503.91895	108.67061	63.26564	2559.00806	122.95394	85.22736																																																	1406.89893	-62.20744	1474.57849	
652	5.425	2260.54565	-46.97003	1704.25037	2363.19946	-51.79533	1610.45410	2144.75269	-35.18152	1645.58398	2179.94141	-237.40414	1407.52600	2055.17920	28.91035	1255.61279	2205.35498	-385.33621	1103.28967	2442.02954	-357.01221	994.94501	2207.82080	169.81555	1396.81653	2108.48145	273.64896	1096.98267	2141.49341	331.79834	846.92041	2239.11035	-199.76117	927.26947	2280.22363	89.10799	926.58301	2037.94348	-16.48927	923.40100	2209.01538	-142.69229	544.74646	2104.31201	-165.79640	453.16666	2040.51489	-78.62111	230.31619	1932.11682	-133.51422	85.98959	1867.48804	-63.77480	68.60851	2071.57422	-130.82510	43.02392	2411.82642	61.30701	652.14117	2392.17969	113.90214	481.45120	2458.26001	38.95824	359.30484	2480.68066	93.83327	82.16040	2434.95679	26.54313	45.43775	2615.49854	98.55103	108.58301	2120.53223	-116.74714	40.42404	2081.06812	-92.89897	48.24954	1990.05579	-47.96655	60.90909	1916.54407	-40.63882	59.76893	1894.43518	-110.33499	64.52788	1963.22998	-145.51369	43.57166	2026.51685	-169.64026	39.23891	2657.79590	80.28613	126.67052	2630.15405	63.20747	117.02144	2549.71118	12.89648	97.58213	2475.33521	1.26142	63.04190	2456.94897	69.53709	50.05053	2527.91602	109.13512	64.67661	2582.79272	122.37038	88.60307																																																	1415.47668	-61.37585	1472.06494	2453.32983	70.73519	50.86464	
653	5.433	2271.34644	-46.29101	1701.89563	2374.10059	-51.20721	1608.14124	2155.77393	-34.51982	1643.60498	2189.98511	-236.69420	1405.12561	2066.29175	30.53805	1253.44812	2217.05566	-384.66043	1101.93335	2454.89551	-357.00049	995.38342	2219.16138	170.85641	1394.63782	2117.61157	274.71036	1095.87170	2146.15649	333.19867	845.75446	2249.98438	-199.79196	926.13593	2292.05981	88.82967	924.67169	2050.25122	-15.41013	921.26501	2217.15674	-143.95447	542.97418	2110.97852	-167.29182	451.94202	2043.09180	-77.94859	229.88486	1933.37085	-133.40143	87.98591	1867.67212	-64.14256	71.15305	2071.54224	-130.91042	42.99722	2421.10620	59.50041	648.77222	2400.97583	109.69680	479.10971	2471.93628	37.84675	359.58865	2503.51392	91.57239	83.60787	2456.58862	27.26057	45.01208	2636.23853	97.23679	112.33910	2120.60864	-117.04390	40.37920	2081.18188	-93.08257	48.40698	1990.92224	-48.55069	62.07795	1916.74927	-41.11080	61.71334	1894.72046	-110.66621	66.73754	1963.35754	-145.72032	44.44012	2026.43164	-169.75598	39.03734	2678.02100	79.46663	131.87869	2651.28735	62.01334	121.86850	2570.44849	12.53528	100.13232	2496.69019	1.65975	63.83940	2479.08936	70.38385	50.94693	2550.97144	107.21224	68.56670	2604.32056	122.13750	92.28427																																																	2694.57520	14.49110	172.87303	3528.59424	-453.90524	1647.22058	
